<?xml version="1.0" standalone="no"?>
<!DOCTYPE svg PUBLIC "-//W3C//DTD SVG 20010904//EN"
 "http://www.w3.org/TR/2001/REC-SVG-20010904/DTD/svg10.dtd">
<svg version="1.0" xmlns="http://www.w3.org/2000/svg"
 width="464.000000pt" height="224.000000pt" viewBox="0 0 464.000000 224.000000"
 preserveAspectRatio="xMidYMid meet">

<g transform="translate(0.000000,224.000000) scale(0.100000,-0.100000)"
fill="#D658B3" stroke="none">
<path d="M608 1883 c-42 -46 -94 -141 -158 -286 -46 -105 -60 -148 -60 -185 1
-61 32 -132 59 -132 23 0 61 44 61 71 0 10 5 21 10 24 5 3 10 14 10 24 0 10 8
29 18 42 10 13 23 42 30 64 14 49 41 86 49 67 13 -32 57 -72 89 -81 52 -14
135 11 227 69 43 28 82 48 86 46 4 -3 -1 -38 -11 -78 -23 -88 -20 -178 6 -207
17 -19 20 -19 48 -5 38 20 78 106 89 194 16 124 28 215 34 251 5 31 2 40 -38
82 -52 57 -77 60 -106 13 -24 -38 -126 -130 -183 -165 -22 -13 -49 -21 -65
-19 -27 3 -28 6 -33 68 -5 72 -27 116 -64 130 -13 5 -26 16 -29 24 -10 24 -40
19 -69 -11z"/>
<path d="M2002 1903 c-25 -10 -104 -146 -169 -292 -72 -162 -81 -217 -46 -289
22 -46 60 -52 79 -12 6 14 27 59 47 100 19 41 43 96 52 123 9 26 20 47 25 47
5 0 18 -15 29 -34 53 -86 178 -75 322 29 74 53 79 49 54 -45 -19 -72 -19 -163
0 -200 18 -35 21 -36 60 -11 35 21 73 110 85 200 4 31 13 97 20 146 7 50 14
92 16 94 2 3 19 -10 37 -27 38 -37 71 -41 87 -12 13 25 30 26 30 1 0 -26 -50
-224 -60 -236 -4 -5 -13 -37 -20 -71 -10 -53 -10 -65 4 -92 18 -35 58 -51 80
-32 11 9 21 8 44 -4 33 -17 56 -14 152 16 146 47 224 106 214 162 -8 45 -39
90 -84 121 -22 15 -40 33 -40 39 0 7 16 28 36 47 81 78 82 137 2 195 -42 32
-59 37 -117 42 -110 7 -299 -38 -353 -85 -16 -14 -21 -12 -58 26 -51 51 -79
53 -104 7 -33 -62 -193 -186 -239 -186 -33 0 -35 5 -40 78 -5 66 -35 122 -65
122 -10 0 -23 9 -30 20 -12 20 -25 23 -50 13z m968 -111 c0 -13 -62 -68 -96
-85 -28 -15 -32 -14 -46 3 -9 10 -24 23 -34 28 -26 15 -10 28 56 46 61 16 120
20 120 8z m23 -243 c44 -12 48 -33 10 -63 -52 -40 -203 -99 -219 -84 -2 3 7
34 20 69 23 63 25 64 72 76 64 15 72 15 117 2z"/>
<path d="M4004 1900 c-12 -5 -37 -27 -55 -50 -86 -107 -91 -112 -115 -106 -13
4 -25 2 -29 -3 -3 -5 -21 -87 -41 -182 -35 -168 -35 -173 -19 -215 28 -73 80
-68 110 11 10 25 21 45 25 45 4 0 15 -10 26 -22 43 -48 250 -125 309 -114 40
8 60 49 44 94 -8 24 -17 29 -95 44 -82 16 -164 49 -185 74 -7 9 3 17 38 29
130 46 184 82 196 133 14 59 -53 190 -124 242 -45 32 -52 34 -85 20z m50 -176
c14 -15 26 -35 26 -44 0 -18 -52 -45 -117 -60 -28 -7 -33 -5 -33 11 0 17 77
117 91 118 4 1 18 -11 33 -25z"/>
<path d="M1576 1885 c-98 -17 -199 -42 -248 -62 -33 -14 -38 -20 -38 -49 0
-19 7 -52 16 -75 17 -40 16 -42 -12 -102 -16 -34 -32 -64 -35 -67 -22 -20 -30
-71 -20 -126 14 -76 47 -108 120 -118 28 -4 55 -5 59 -2 4 2 38 7 75 10 127
10 162 20 205 59 30 27 28 43 -8 77 -30 28 -31 29 -83 16 -63 -16 -194 -28
-224 -20 l-22 6 24 48 24 48 94 4 c82 3 99 6 135 31 41 26 56 57 29 57 -8 0
-24 11 -37 25 -21 23 -31 25 -102 25 -71 0 -78 2 -78 20 0 14 11 22 43 30 23
7 60 17 82 25 22 7 60 15 85 19 98 14 143 73 85 110 -39 25 -72 27 -169 11z"/>
<path d="M3545 1885 c-104 -17 -244 -53 -272 -71 -18 -11 -21 -20 -16 -51 3
-21 12 -52 20 -69 13 -30 12 -36 -32 -129 -44 -92 -46 -103 -40 -154 14 -115
61 -136 261 -118 101 9 169 29 200 58 31 29 30 42 -7 77 -29 27 -34 28 -73 20
-72 -16 -226 -29 -241 -20 -13 7 -12 14 8 53 l24 44 89 5 c74 4 97 10 137 33
26 15 47 31 47 35 0 4 -18 22 -40 40 -36 30 -44 32 -115 32 -73 0 -76 1 -73
22 3 24 6 25 188 67 93 21 118 35 126 66 5 20 0 30 -21 47 -34 27 -68 29 -170
13z"/>
<path d="M463 983 c-44 -2 -73 -9 -76 -16 -8 -21 9 -108 25 -123 12 -12 57
-15 259 -16 259 -1 304 3 311 30 6 24 -1 42 -17 42 -8 0 -16 9 -20 19 -7 23
-41 37 -120 50 -73 12 -264 19 -362 14z"/>
<path d="M3895 984 c-27 -2 -88 -9 -134 -15 -75 -10 -88 -15 -122 -48 -49 -46
-52 -76 -6 -87 23 -6 407 -9 519 -4 26 1 58 109 40 136 -7 12 -208 24 -297 18z"/>
<path d="M1883 939 c-4 -13 -24 -73 -46 -134 -21 -60 -49 -140 -63 -177 -39
-112 -41 -158 -10 -223 37 -75 70 -86 184 -56 55 14 112 21 175 21 111 0 129
9 119 58 -6 30 -15 37 -67 59 -62 26 -92 27 -237 7 -47 -6 -48 -6 -48 20 0 14
12 56 26 93 14 38 32 84 39 103 7 19 26 66 41 103 26 65 27 70 11 95 -8 15
-28 30 -44 34 -15 3 -38 10 -51 14 -19 5 -24 2 -29 -17z"/>
<path d="M2763 948 c-9 -12 -23 -68 -39 -148 -21 -111 -118 -224 -218 -256
-50 -16 -59 -16 -67 -4 -12 21 -11 130 2 169 13 37 -5 92 -48 146 -25 31 -28
32 -49 19 -26 -18 -44 -106 -51 -256 -4 -88 -3 -100 16 -124 11 -14 18 -30 16
-34 -3 -5 2 -25 12 -45 19 -41 64 -65 120 -65 50 0 175 63 212 107 18 21 49
56 70 78 47 49 98 145 107 202 6 41 7 42 27 28 30 -21 54 -19 67 5 15 28 44
27 37 -2 -19 -87 -60 -230 -73 -257 -9 -18 -17 -54 -18 -81 -1 -39 4 -53 23
-74 26 -28 50 -33 69 -14 9 9 18 9 37 0 38 -17 77 -15 153 9 98 32 174 73 200
109 37 50 25 92 -50 162 l-60 57 46 49 c79 84 76 133 -9 198 -32 24 -48 28
-118 32 -93 4 -238 -23 -306 -58 -30 -15 -41 -17 -41 -7 0 7 -13 26 -28 41
-23 21 -31 24 -39 14z m423 -137 c-22 -22 -51 -45 -67 -51 -25 -11 -32 -9 -63
15 -20 15 -36 29 -36 31 0 14 102 42 160 43 l44 1 -38 -39z m63 -212 c39 -14
39 -22 0 -56 -36 -32 -182 -96 -209 -91 -17 3 -16 7 7 69 23 64 26 67 66 77
58 13 99 14 136 1z"/>
<path d="M1490 899 c-47 -26 -99 -55 -117 -64 -44 -23 -131 -112 -155 -159
-39 -76 -4 -206 70 -265 92 -72 304 -90 367 -31 31 29 31 32 0 68 -23 28 -29
29 -127 35 -137 7 -196 22 -204 53 -10 39 10 77 63 119 78 61 136 94 205 117
125 40 141 106 40 166 -33 19 -50 14 -142 -39z"/>
</g>
</svg>
